<svg width="450" height="284" viewBox="0 0 450 284" fill="none" xmlns="http://www.w3.org/2000/svg">
<rect x="306.462" y="-139.78" width="80.5739" height="440.903" transform="rotate(44.0335 306.462 -139.78)" fill="url(#paint0_linear_25_2)"/>
<rect x="448.303" y="-89.9041" width="80.5739" height="440.903" transform="rotate(44.0335 448.303 -89.9041)" fill="url(#paint1_linear_25_2)"/>
<path d="M324.102 -296.679C326.878 -295.497 329.622 -294.274 332.337 -293.012L331.914 -292.109L332.819 -291.684C333.42 -291.401 334.02 -291.117 334.618 -290.83L335.52 -290.399L335.95 -291.299C338.667 -289.987 341.351 -288.634 344.004 -287.242L343.538 -286.36L344.422 -285.892C345.008 -285.582 345.593 -285.269 346.176 -284.955L347.056 -284.481L347.53 -285.36C350.18 -283.919 352.797 -282.438 355.38 -280.919L354.872 -280.061L355.732 -279.551C356.302 -279.212 356.872 -278.873 357.439 -278.531L358.294 -278.014L358.809 -278.869C361.386 -277.302 363.929 -275.697 366.436 -274.054L365.887 -273.221L366.721 -272.67C367.275 -272.304 367.826 -271.937 368.376 -271.568L369.206 -271.011L369.762 -271.84C372.259 -270.15 374.72 -268.423 377.145 -266.659L376.556 -265.855L377.363 -265.264C377.898 -264.871 378.431 -264.478 378.963 -264.082L379.765 -263.485L380.361 -264.285C382.771 -262.476 385.144 -260.631 387.48 -258.751L386.852 -257.976L387.629 -257.346C388.145 -256.928 388.659 -256.508 389.171 -256.086L389.943 -255.451L390.577 -256.221C392.895 -254.297 395.175 -252.339 397.416 -250.346L396.75 -249.603L397.495 -248.935C397.99 -248.492 398.483 -248.047 398.974 -247.601L399.715 -246.928L400.386 -247.666C402.605 -245.632 404.785 -243.564 406.926 -241.464L406.225 -240.754L406.936 -240.051C407.409 -239.583 407.88 -239.113 408.35 -238.642L409.055 -237.934L409.761 -238.639C411.877 -236.498 413.953 -234.326 415.988 -232.123L415.253 -231.449L415.928 -230.712C416.378 -230.221 416.826 -229.729 417.272 -229.235L417.942 -228.492L418.681 -229.161C420.689 -226.92 422.654 -224.648 424.578 -222.347L423.81 -221.71L424.449 -220.941C424.874 -220.428 425.298 -219.914 425.719 -219.398L426.351 -218.623L427.123 -219.255C429.017 -216.918 430.868 -214.551 432.675 -212.158L431.878 -211.559L432.477 -210.759C432.876 -210.226 433.274 -209.692 433.669 -209.156L434.262 -208.351L435.065 -208.944C436.84 -206.517 438.572 -204.062 440.259 -201.581L439.432 -201.022L439.991 -200.193C440.363 -199.641 440.734 -199.088 441.102 -198.533L441.655 -197.7L442.485 -198.252C444.138 -195.74 445.746 -193.202 447.308 -190.639L446.455 -190.123L446.972 -189.268C447.316 -188.698 447.659 -188.127 447.998 -187.555L448.509 -186.695L449.367 -187.205C450.892 -184.614 452.371 -181.999 453.804 -179.362L452.926 -178.889L453.4 -178.008C453.715 -177.422 454.029 -176.835 454.339 -176.247L454.807 -175.363L455.688 -175.829C457.082 -173.166 458.43 -170.48 459.729 -167.774L458.829 -167.346L459.258 -166.442C459.544 -165.841 459.827 -165.239 460.108 -164.637L460.531 -163.73L461.434 -164.152C462.693 -161.423 463.904 -158.673 465.066 -155.904L464.145 -155.521L464.529 -154.597C464.784 -153.983 465.037 -153.368 465.287 -152.752L465.663 -151.825L466.586 -152.201C467.706 -149.412 468.778 -146.604 469.799 -143.78L468.859 -143.444L469.196 -142.503C469.419 -141.876 469.641 -141.249 469.86 -140.621L470.188 -139.677L471.129 -140.005C472.107 -137.163 473.034 -134.305 473.91 -131.433L472.956 -131.145L473.244 -130.187C473.435 -129.55 473.625 -128.913 473.811 -128.275L474.091 -127.315L475.048 -127.596C475.88 -124.709 476.66 -121.807 477.389 -118.892L476.42 -118.654L476.659 -117.683C476.817 -117.037 476.973 -116.39 477.127 -115.744L477.358 -114.771L478.328 -115.002C479.011 -112.077 479.64 -109.139 480.218 -106.19L479.24 -106.001L479.428 -105.019C479.553 -104.366 479.676 -103.713 479.796 -103.059L479.976 -102.075L480.958 -102.256C481.488 -99.3003 481.965 -96.334 482.39 -93.3589L481.402 -93.2216L481.54 -92.2308C481.631 -91.5723 481.719 -90.9131 481.805 -90.2537L481.934 -89.2623L482.923 -89.3917C483.299 -86.4125 483.622 -83.4251 483.891 -80.4307L482.898 -80.3455L482.983 -79.3493C483.04 -78.6869 483.094 -78.024 483.146 -77.3608L483.223 -76.3637L484.217 -76.4419C484.438 -73.4482 484.604 -70.4482 484.715 -67.4433L483.718 -67.4105L483.751 -66.4107C483.773 -65.7461 483.792 -65.0813 483.809 -64.4163L483.834 -63.4164L484.831 -63.4418C484.893 -60.442 484.901 -57.4379 484.853 -54.4309L483.857 -54.4497L483.837 -53.4498C483.824 -52.7846 483.808 -52.1192 483.789 -51.4539L483.761 -50.4542L484.758 -50.4276C484.662 -47.4295 484.509 -44.4291 484.303 -41.4276L483.31 -41.5001L483.236 -40.5022C483.188 -39.8386 483.137 -39.175 483.083 -38.5113L483.001 -37.5147L483.995 -37.4344C483.74 -34.447 483.43 -31.4592 483.064 -28.4723L482.075 -28.5971L481.949 -27.6053C481.865 -26.9447 481.778 -26.2842 481.689 -25.6237L481.555 -24.6331L482.543 -24.5003C482.13 -21.5321 481.661 -18.5654 481.135 -15.6014L480.155 -15.7789L479.976 -14.7953C479.857 -14.1402 479.735 -13.4849 479.611 -12.8301L479.425 -11.8477L480.404 -11.6623C479.833 -8.72132 479.206 -5.78397 478.523 -2.85088L477.554 -3.08042L477.323 -2.10809C477.17 -1.46085 477.014 -0.812821 476.855 -0.166056L476.616 0.804169L477.585 1.04204C476.858 3.94745 476.076 6.84766 475.238 9.74175L474.282 9.46144L473.999 10.4207C473.812 11.0583 473.622 11.6959 473.429 12.3329L473.138 13.29L474.092 13.5779C473.213 16.44 472.279 19.2956 471.289 22.1431L470.348 21.8122L470.016 22.756C469.795 23.3823 469.572 24.0085 469.346 24.634L469.005 25.5744L469.943 25.9128C468.915 28.7235 467.831 31.5257 466.692 34.3187L465.77 33.9393L465.389 34.8641C465.262 35.1727 465.134 35.4812 465.005 35.7895C464.876 36.0981 464.747 36.4066 464.617 36.7144L464.228 37.6354L465.147 38.022C463.963 40.7966 462.734 43.5387 461.46 46.2475L460.559 45.8198L460.131 46.7234C459.845 47.3242 459.557 47.9235 459.267 48.5209L458.831 49.4202L459.728 49.8547C458.401 52.5621 457.029 55.2352 455.613 57.874L454.737 57.3996L454.262 58.2784C453.945 58.8635 453.625 59.4472 453.304 60.0289L452.821 60.9047L453.693 61.386C452.226 64.0178 450.715 66.6146 449.161 69.1752L448.311 68.6543L447.789 69.5074C447.441 70.0753 447.091 70.6413 446.739 71.2056L446.21 72.0539L447.055 72.5808C445.451 75.1292 443.805 77.6414 442.117 80.116L441.295 79.5511L440.728 80.3748C440.351 80.9239 439.97 81.4713 439.588 82.0166L439.015 82.8356L439.832 83.4069C438.095 85.8653 436.316 88.2858 434.498 90.668L433.708 90.0602L433.098 90.8523C432.692 91.3803 432.283 91.9066 431.873 92.4308L431.257 93.2181L432.041 93.8323C430.177 96.194 428.271 98.5164 426.328 100.799L425.571 100.15L424.92 100.909C424.486 101.415 424.05 101.919 423.613 102.42L422.956 103.173L423.706 103.828C421.718 106.086 419.693 108.305 417.63 110.482L416.909 109.794L416.219 110.517L414.834 111.955L414.138 112.673L414.853 113.367C412.749 115.516 410.609 117.624 408.433 119.69L407.749 118.965L407.021 119.65C406.537 120.106 406.051 120.56 405.563 121.012L404.829 121.692L405.508 122.423C403.294 124.458 401.045 126.45 398.763 128.4L398.118 127.64L397.355 128.286L395.827 129.57L395.06 130.21L395.697 130.975C393.38 132.89 391.031 134.762 388.649 136.591L388.045 135.798L387.25 136.404L385.658 137.606L384.857 138.205L385.454 139.003C383.041 140.794 380.598 142.542 378.124 144.245L377.562 143.421L376.736 143.985L375.084 145.102L374.254 145.66L374.808 146.487C372.306 148.15 369.775 149.77 367.216 151.343L366.697 150.492L365.843 151.013C365.275 151.359 364.706 151.702 364.136 152.043L363.278 152.557L363.79 153.413C361.206 154.946 358.595 156.432 355.958 157.873L355.484 156.995L354.605 157.472L352.847 158.415L351.963 158.883L352.43 159.762C349.772 161.161 347.09 162.513 344.383 163.817L343.953 162.919L343.051 163.35L341.247 164.201L340.341 164.625L340.763 165.528C338.038 166.79 335.289 168.003 332.519 169.169L332.136 168.25L331.213 168.634L329.368 169.393L328.442 169.771L328.818 170.694C326.033 171.815 323.227 172.89 320.401 173.915L320.065 172.977L319.124 173.315C318.498 173.539 317.871 173.761 317.243 173.981L316.298 174.312L316.628 175.252C313.791 176.232 310.935 177.164 308.061 178.047L307.772 177.094L306.814 177.383C306.178 177.576 305.54 177.767 304.902 177.955L303.942 178.238L304.224 179.193C301.342 180.031 298.443 180.819 295.528 181.558L295.287 180.591L294.317 180.832L292.378 181.308L291.406 181.543L291.64 182.511C288.72 183.204 285.785 183.846 282.836 184.439L282.644 183.462L281.663 183.655C281.01 183.783 280.356 183.91 279.702 184.033L278.72 184.219L278.904 185.199C275.954 185.745 272.992 186.242 270.017 186.688L269.873 185.701L268.884 185.846L266.907 186.127L265.916 186.264L266.052 187.251C263.08 187.65 260.096 188 257.103 188.298L257.008 187.306L256.012 187.402L254.023 187.584L253.027 187.672L253.114 188.665C250.125 188.917 247.128 189.118 244.123 189.268L244.078 188.273L243.079 188.319L241.084 188.403L240.085 188.442L240.123 189.438C237.126 189.542 234.122 189.596 231.113 189.598L231.116 188.6L230.116 188.598C229.452 188.596 228.786 188.591 228.121 188.583L227.121 188.573L227.11 189.569C224.112 189.525 221.108 189.431 218.101 189.284L218.153 188.289L217.154 188.237L215.165 188.125L214.167 188.065L214.107 189.059C211.114 188.868 208.118 188.626 205.12 188.332L205.222 187.341L204.227 187.24C203.567 187.173 202.907 187.102 202.247 187.03L201.252 186.922L201.144 187.912C198.164 187.575 195.183 187.186 192.202 186.745L192.352 185.76L191.363 185.61C190.708 185.511 190.053 185.409 189.398 185.304L188.409 185.147L188.253 186.131C185.293 185.648 182.334 185.114 179.377 184.528L179.575 183.551L178.595 183.354C177.946 183.223 177.296 183.089 176.647 182.953L175.668 182.747L175.463 183.723C172.532 183.096 169.602 182.42 166.676 181.691L166.92 180.724L165.951 180.478C165.309 180.316 164.667 180.15 164.026 179.983L163.058 179.731L162.806 180.695C159.909 179.927 157.015 179.109 154.127 178.24L154.419 177.286L153.463 176.994C152.829 176.801 152.195 176.605 151.562 176.407L150.608 176.108L150.31 177.059C147.454 176.153 144.604 175.198 141.76 174.19L142.097 173.251L141.156 172.914C140.532 172.69 139.907 172.464 139.284 172.236L138.345 171.892L138.001 172.826C135.194 171.786 132.394 170.695 129.601 169.554L129.982 168.633L129.058 168.251C128.749 168.124 128.44 167.996 128.131 167.867C127.823 167.738 127.514 167.609 127.207 167.479L126.285 167.091L125.898 168.009C123.122 166.827 120.377 165.604 117.662 164.342L118.086 163.44L117.181 163.015L115.382 162.162L114.48 161.73L114.049 162.63C111.333 161.318 108.648 159.964 105.996 158.572L106.462 157.692L105.578 157.223C104.992 156.913 104.408 156.601 103.825 156.286L102.944 155.812L102.47 156.69C99.8201 155.249 97.2031 153.768 94.6194 152.25L95.1284 151.392L94.2683 150.882C93.6979 150.544 93.1288 150.204 92.5616 149.862L91.705 149.346L91.1905 150.199C88.6138 148.632 86.0712 147.027 83.5636 145.385L84.1137 144.553L83.2792 144.001L81.6238 142.899L80.7929 142.342L80.2371 143.169C77.7406 141.48 75.2794 139.753 72.8545 137.99L73.4437 137.186L72.6376 136.595L71.0367 135.413L70.235 134.816L69.6392 135.615C67.2287 133.806 64.8553 131.961 62.5189 130.081L63.1471 129.308L62.3711 128.677L60.8288 127.418L60.0572 126.782L59.4231 127.551C57.105 125.628 54.8251 123.669 52.5837 121.676L53.2499 120.934L52.5047 120.268L51.025 118.932L50.2855 118.259L49.6142 118.996C47.3946 116.962 45.2146 114.894 43.0741 112.794L43.775 112.085L43.0631 111.382L41.6504 109.975L40.9451 109.266L40.2378 109.969C38.1217 107.829 36.0461 105.657 34.0116 103.454L34.7477 102.78L34.0712 102.043L32.7285 100.566L32.0586 99.8234L31.3177 100.491C29.3103 98.2498 27.3447 95.978 25.4212 93.6769L26.1889 93.0416L25.5513 92.272L24.2816 90.7296L23.6493 89.9548L22.8761 90.5856C20.9823 88.2485 19.1321 85.8818 17.3244 83.4879L18.1227 82.8908L17.5233 82.0905L16.3309 80.4873L15.7377 79.6822L14.9342 80.274C13.1586 77.8464 11.427 75.3915 9.73992 72.9106L10.5681 72.3534L10.0083 71.5242C9.63604 70.9723 9.26641 70.4189 8.89862 69.8645L8.34557 69.0317L7.5139 69.5821C5.86099 67.0697 4.25337 64.5317 2.69124 61.9695L3.54506 61.4548L3.02717 60.5986L2.00102 58.886L1.4908 58.0266L0.63308 58.5354C-0.892655 55.9444 -2.37165 53.3293 -3.80441 50.692L-2.9271 50.2199L-3.40073 49.3388C-3.71606 48.753 -4.02933 48.1657 -4.34002 47.5777L-4.80727 46.6939L-5.689 47.1588C-7.0834 44.4953 -8.43108 41.8101 -9.73037 39.104L-8.82942 38.6767L-9.25864 37.7728C-9.54418 37.1722 -9.82778 36.5702 -10.1086 35.9676L-10.5305 35.0614L-11.435 35.4819C-12.6941 32.7523 -13.9048 30.0025 -15.0667 27.234L-14.1456 26.8522L-14.5285 25.9285L-15.2866 24.0832L-15.6631 23.1569L-16.5865 23.5314C-17.7065 20.7422 -18.7784 17.9353 -19.7993 15.1111L-18.8596 14.7762L-19.1956 13.834L-19.8594 11.9529L-20.1881 11.0084L-21.13 11.3361C-22.1074 8.49429 -23.0335 5.63601 -23.9098 2.76312L-22.9555 2.47665L-23.2439 1.51934L-23.811 -0.393314L-24.0908 -1.3534L-25.0487 -1.07369C-25.8802 -3.96116 -26.6602 -6.86279 -27.3888 -9.77745L-26.4201 -10.0146L-26.6591 -10.9862C-26.8178 -11.6317 -26.9742 -12.2777 -27.1277 -12.9244L-27.3586 -13.8979L-28.3287 -13.6677C-29.0111 -16.5934 -29.6414 -19.5314 -30.2192 -22.4802L-29.2396 -22.6673L-29.4277 -23.6494L-29.7962 -25.6094L-29.9762 -26.5934L-30.958 -26.4136C-31.4886 -29.3697 -31.9664 -32.336 -32.3907 -35.3113L-31.4029 -35.4473L-31.5399 -36.4377L-31.8059 -38.4153L-31.9351 -39.4067L-32.9231 -39.2781C-33.2994 -42.257 -33.6229 -45.2442 -33.8917 -48.2383L-32.8977 -48.323L-32.9838 -49.3187L-33.1456 -51.3077L-33.223 -52.304L-34.2176 -52.228C-34.4378 -55.2217 -34.6039 -58.2216 -34.7153 -61.2265L-33.718 -61.2581L-33.7515 -62.2583C-33.7735 -62.9228 -33.7929 -63.5877 -33.8094 -64.2527L-33.8337 -65.2521L-34.831 -65.228C-34.8935 -68.2278 -34.901 -71.2319 -34.8536 -74.239L-33.8568 -74.2189L-33.8365 -75.2188L-33.789 -77.2147L-33.7612 -78.2147L-34.7577 -78.2432C-34.6615 -81.2411 -34.5106 -84.2413 -34.3037 -87.2426L-33.3093 -87.1685L-33.2358 -88.1663L-33.0825 -90.1572L-33.002 -91.1543L-33.9956 -91.2355C-33.7405 -94.223 -33.4313 -97.211 -33.0649 -100.198L-32.0744 -100.071L-31.9484 -101.063L-31.6889 -103.045L-31.555 -104.035L-32.5435 -104.17C-32.1299 -107.138 -31.6608 -110.104 -31.1357 -113.068L-30.1542 -112.89L-29.9765 -113.874L-29.6117 -115.839L-29.4252 -116.821L-30.4045 -117.008C-29.8335 -119.949 -29.2068 -122.886 -28.5241 -125.819L-27.554 -125.588L-27.3238 -126.561L-26.8549 -128.502L-26.6168 -129.473L-27.5848 -129.712C-26.8583 -132.617 -26.076 -135.518 -25.238 -138.412L-24.2815 -138.13L-23.9997 -139.09C-23.8122 -139.727 -23.6214 -140.365 -23.4285 -141.001L-23.1395 -141.958L-24.0936 -142.248C-23.2141 -145.11 -22.2791 -147.965 -21.2888 -150.813L-20.348 -150.481L-20.016 -151.424L-19.3455 -153.303L-19.0063 -154.242L-19.944 -154.582C-18.915 -157.393 -17.8318 -160.196 -16.6928 -162.989L-15.7706 -162.607L-15.3892 -163.532L-15.0049 -164.458C-14.8761 -164.767 -14.7468 -165.075 -14.6169 -165.383L-14.2283 -166.304L-15.1479 -166.692C-13.9641 -169.467 -12.7343 -172.209 -11.4605 -174.917L-10.56 -174.489L-10.1307 -175.391L-9.26723 -177.189L-8.83069 -178.089L-9.72819 -178.525C-8.40134 -181.232 -7.02998 -183.905 -5.61475 -186.543L-4.73778 -186.069L-4.26128 -186.947L-3.3044 -188.698L-2.8207 -189.573L-3.69338 -190.056C-2.22617 -192.687 -0.715474 -195.284 0.838152 -197.844L1.68941 -197.323L2.21142 -198.176C2.55918 -198.744 2.90879 -199.31 3.26075 -199.875L3.79012 -200.722L2.94404 -201.251C4.5481 -203.799 6.19483 -206.311 7.883 -208.786L8.70494 -208.22L9.27185 -209.043C9.64971 -209.592 10.0289 -210.14 10.4109 -210.686L10.9851 -211.504L10.168 -212.077C11.9049 -214.535 13.6833 -216.956 15.5017 -219.338L16.292 -218.729L16.9018 -219.521L18.1275 -221.099L18.7438 -221.887L17.9574 -222.503C19.8224 -224.864 21.7283 -227.186 23.672 -229.469L24.4283 -228.819L25.0802 -229.578L26.3872 -231.088L27.0447 -231.842L26.2937 -232.497C28.281 -234.755 30.3062 -236.974 32.369 -239.151L33.0899 -238.462L33.7811 -239.186L35.1661 -240.623L35.8624 -241.341L35.1471 -242.037C37.2508 -244.186 39.391 -246.294 41.5669 -248.36L42.251 -247.633L42.9793 -248.319L44.4373 -249.681L45.1708 -250.361L44.492 -251.093C46.7058 -253.128 48.9547 -255.12 51.2371 -257.07L51.8821 -256.308L52.645 -256.955L54.1719 -258.238L54.9405 -258.878L54.3018 -259.645C56.6187 -261.561 58.9691 -263.432 61.3509 -265.261L61.9542 -264.467L62.7497 -265.073C63.2788 -265.476 63.81 -265.876 64.3422 -266.275L65.1425 -266.874L64.5445 -267.673C66.9575 -269.465 69.4017 -271.212 71.8758 -272.915L72.4384 -272.089L73.2643 -272.654L74.9164 -273.771L75.7467 -274.328L75.1909 -275.157C77.6931 -276.821 80.2244 -278.44 82.7837 -280.013L83.3022 -279.161L84.1561 -279.681L85.8635 -280.712L86.7222 -281.226L86.2096 -282.082C88.7935 -283.615 91.4044 -285.102 94.0414 -286.542L94.5161 -285.664L95.3953 -286.141L97.1532 -287.082L98.0368 -287.552L97.5684 -288.433C100.227 -289.831 102.91 -291.183 105.617 -292.488L106.047 -291.587L106.949 -292.018L108.753 -292.87L109.659 -293.293L109.236 -294.197C111.962 -295.459 114.71 -296.673 117.481 -297.839L117.864 -296.918L118.787 -297.302L120.632 -298.062L121.558 -298.44L121.181 -299.364C123.966 -300.486 126.772 -301.56 129.598 -302.585L129.935 -301.646L130.877 -301.983L132.757 -302.65L133.701 -302.98L133.371 -303.922C136.208 -304.903 139.065 -305.834 141.939 -306.717L142.228 -305.762L143.185 -306.052L145.097 -306.624L146.057 -306.907L145.776 -307.863C148.658 -308.701 151.557 -309.489 154.471 -310.228L154.713 -309.259L155.684 -309.501C156.329 -309.662 156.975 -309.821 157.622 -309.977L158.595 -310.211L158.36 -311.181C161.28 -311.874 164.215 -312.517 167.163 -313.109L167.356 -312.13L168.337 -312.323L170.298 -312.702L171.281 -312.888L171.094 -313.869C174.044 -314.416 177.007 -314.912 179.982 -315.358L180.126 -314.37L181.116 -314.514L183.094 -314.795L184.084 -314.932L183.947 -315.921C186.92 -316.32 189.904 -316.669 192.897 -316.968L192.992 -315.974L193.988 -316.07L195.977 -316.253L196.973 -316.341L196.885 -317.335C199.873 -317.587 202.871 -317.788 205.875 -317.938L205.922 -316.941L206.921 -316.988C207.585 -317.018 208.25 -317.047 208.915 -317.072L209.915 -317.11L209.876 -318.108C212.873 -318.212 215.877 -318.265 218.887 -318.266L218.884 -317.269L219.884 -317.265C220.548 -317.263 221.213 -317.259 221.878 -317.252L222.879 -317.241L222.89 -318.239C225.888 -318.195 228.891 -318.101 231.898 -317.954L231.847 -316.958L232.845 -316.906L234.835 -316.793L235.833 -316.733L235.892 -317.729C238.885 -317.538 241.881 -317.296 244.879 -317.002L244.778 -316.01L245.773 -315.908L247.753 -315.699L248.747 -315.59L248.855 -316.582C251.835 -316.244 254.816 -315.856 257.797 -315.415L257.648 -314.429L258.636 -314.279L260.603 -313.973L261.59 -313.816L261.747 -314.8C264.706 -314.317 267.665 -313.784 270.623 -313.198L270.425 -312.22L271.405 -312.022L273.353 -311.621L274.332 -311.416L274.536 -312.393C277.468 -311.766 280.397 -311.089 283.323 -310.36L283.079 -309.393L284.048 -309.147L285.974 -308.652L286.941 -308.399L287.193 -309.365C290.09 -308.598 292.983 -307.779 295.872 -306.91L295.581 -305.955L296.538 -305.663L298.438 -305.075L299.392 -304.777L299.69 -305.729C302.545 -304.823 305.396 -303.867 308.239 -302.859L307.903 -301.92L308.844 -301.583L310.717 -300.904L311.656 -300.56L311.999 -301.496C314.805 -300.456 317.606 -299.365 320.398 -298.224L320.017 -297.301L320.942 -296.92C321.25 -296.793 321.559 -296.664 321.868 -296.536C322.177 -296.407 322.486 -296.277 322.794 -296.147L323.715 -295.759L324.102 -296.679Z" stroke="white" stroke-width="2" stroke-linecap="square" stroke-dasharray="2 11"/>
<defs>
<linearGradient id="paint0_linear_25_2" x1="346.749" y1="-139.78" x2="346.749" y2="301.123" gradientUnits="userSpaceOnUse">
<stop stop-color="#045CC2"/>
<stop offset="1" stop-color="#0874F2"/>
</linearGradient>
<linearGradient id="paint1_linear_25_2" x1="488.59" y1="-89.9041" x2="488.59" y2="350.999" gradientUnits="userSpaceOnUse">
<stop stop-color="#045CC2"/>
<stop offset="1" stop-color="#0874F2"/>
</linearGradient>
</defs>
</svg>
