<svg width="15" height="16" viewBox="0 0 15 16" fill="none" xmlns="http://www.w3.org/2000/svg">
<path d="M2.15723 7.44238V10.2021C2.15723 12.4788 2.15723 13.6172 2.86451 14.3245C3.57178 15.0317 4.71013 15.0317 6.98682 15.0317H8.3667C10.6434 15.0317 11.7817 15.0317 12.489 14.3245C13.1963 13.6172 13.1963 12.4788 13.1963 10.2021V7.44238M7.67676 3.89411C7.67676 2.42437 6.4853 1.23291 5.01556 1.23291H4.76914C4.08871 1.23291 3.53711 1.78451 3.53711 2.46495C3.53711 3.68973 4.52999 4.68262 5.75478 4.68262H7.67676M7.67676 3.89411V4.68262M7.67676 3.89411C7.67676 2.42437 8.86822 1.23291 10.3379 1.23291H10.5844C11.2648 1.23291 11.8164 1.78451 11.8164 2.46495C11.8164 3.68973 10.8235 4.68262 9.59873 4.68262H7.67676M7.67676 7.44238V15.0317M1.46729 6.0625C1.46729 5.54664 1.46729 5.2887 1.60594 5.09658C1.69677 4.97072 1.82741 4.8662 1.98474 4.79354C2.2249 4.68262 2.54731 4.68262 3.19214 4.68262H12.1614C12.8062 4.68262 13.1286 4.68262 13.3688 4.79354C13.5261 4.8662 13.6568 4.97072 13.7476 5.09658C13.8862 5.2887 13.8862 5.54664 13.8862 6.0625C13.8862 6.57836 13.8862 6.83627 13.7476 7.02842C13.6568 7.15426 13.5261 7.25879 13.3688 7.33144C13.1286 7.44238 12.8062 7.44238 12.1614 7.44238H3.19214C2.54731 7.44238 2.2249 7.44238 1.98474 7.33144C1.82741 7.25879 1.69677 7.15426 1.60594 7.02842C1.46729 6.83627 1.46729 6.57836 1.46729 6.0625Z" stroke="#0874F2" stroke-linecap="round" stroke-linejoin="round"/>
</svg>
