<svg width="19" height="22" viewBox="0 0 19 22" fill="none" xmlns="http://www.w3.org/2000/svg">
<path d="M8.17676 10H5.17676M11.1768 6H5.17676M1.17676 17.6458V7.05426C1.17676 4.20025 1.17676 2.77325 2.05544 1.88663C2.93412 1 4.34833 1 7.17676 1H11.1768C14.0052 1 15.4194 1 16.2981 1.88663C17.1768 2.77325 17.1768 4.20025 17.1768 7.05426V17.6458C17.1768 19.1575 17.1768 19.9133 16.7148 20.2108C15.9599 20.6971 14.7929 19.6774 14.2059 19.3073C13.7209 19.0014 13.4785 18.8485 13.2093 18.8397C12.9185 18.8301 12.6717 18.9768 12.1477 19.3073L10.2368 20.5124C9.72126 20.8374 9.46356 21 9.17676 21C8.88996 21 8.63226 20.8374 8.11676 20.5124L6.20589 19.3073C5.72091 19.0014 5.47842 18.8485 5.20929 18.8397C4.91848 18.8301 4.67169 18.9768 4.14763 19.3073C3.56071 19.6774 2.39363 20.6971 1.63871 20.2108C1.17676 19.9133 1.17676 19.1575 1.17676 17.6458Z" stroke="#0874F2" stroke-width="2" stroke-linecap="round" stroke-linejoin="round"/>
</svg>
