<svg width="120" height="49" viewBox="0 0 120 49" fill="none" xmlns="http://www.w3.org/2000/svg">
<path d="M15.8075 18.216L16.5963 18.0288V30.7432L14.299 32.9504L12.0017 31.7569V23.0313C12.0013 20.7382 13.5766 18.7452 15.8075 18.216ZM3.68077 26.3065L0.642944 25.8554L3.64733 27.4164L8.24194 29.8034V21.8457L7.4531 22.033C5.40062 22.5203 3.90656 24.2476 3.68077 26.3065ZM27.1212 20.6304L24.9498 21.6186V14.2114L24.1609 14.3986C21.9301 14.9283 20.3552 16.9208 20.3552 19.2135V27.1307L24.9498 22.7163L27.1212 20.6304Z" fill="#0874F2"/>
<path d="M15.8075 18.216L16.5963 18.0288V30.7432L14.299 32.9504L12.0017 31.7569V23.0313C12.0013 20.7382 13.5766 18.7452 15.8075 18.216ZM3.68077 26.3065L0.642944 25.8554L3.64733 27.4164L8.24194 29.8034V21.8457L7.4531 22.033C5.40062 22.5203 3.90656 24.2476 3.68077 26.3065ZM27.1212 20.6304L24.9498 21.6186V14.2114L24.1609 14.3986C21.9301 14.9283 20.3552 16.9208 20.3552 19.2135V27.1307L24.9498 22.7163L27.1212 20.6304Z" fill="url(#paint0_linear_17_326)"/>
<path d="M0.642944 29.1274L14.2986 48.7644L51.2037 0.764404L14.2986 36.2219L0.642944 29.1274Z" fill="#0874F2"/>
<path d="M0.642944 29.1274L14.2986 48.7644L51.2037 0.764404L14.2986 36.2219L0.642944 29.1274Z" fill="url(#paint1_linear_17_326)"/>
<path d="M55.3317 27.5004V24.8364H59.2437C59.7557 24.8364 60.2197 24.7324 60.6357 24.5244C61.0517 24.3164 61.3797 24.0204 61.6197 23.6364C61.8597 23.2364 61.9797 22.7564 61.9797 22.1964C61.9797 21.6524 61.8597 21.1804 61.6197 20.7804C61.3797 20.3804 61.0517 20.0764 60.6357 19.8684C60.2197 19.6604 59.7557 19.5564 59.2437 19.5564H55.3317V16.8924H59.5797C60.6517 16.8924 61.6117 17.1084 62.4597 17.5404C63.3237 17.9724 64.0037 18.5884 64.4997 19.3884C64.9957 20.1724 65.2437 21.1084 65.2437 22.1964C65.2437 23.2844 64.9957 24.2284 64.4997 25.0284C64.0037 25.8124 63.3237 26.4204 62.4597 26.8524C61.6117 27.2844 60.6517 27.5004 59.5797 27.5004H55.3317ZM52.9317 33.7644V16.8924H56.1957V33.7644H52.9317ZM71.6937 34.0044C70.6377 34.0044 69.6857 33.7404 68.8377 33.2124C67.9897 32.6844 67.3257 31.9644 66.8457 31.0524C66.3657 30.1404 66.1257 29.1164 66.1257 27.9804C66.1257 26.8284 66.3657 25.7964 66.8457 24.8844C67.3257 23.9724 67.9897 23.2524 68.8377 22.7244C69.6857 22.1964 70.6377 21.9324 71.6937 21.9324C72.5257 21.9324 73.2697 22.1004 73.9257 22.4364C74.5817 22.7724 75.1017 23.2444 75.4857 23.8524C75.8857 24.4444 76.1017 25.1164 76.1337 25.8684V30.0444C76.1017 30.8124 75.8857 31.4924 75.4857 32.0844C75.1017 32.6764 74.5817 33.1484 73.9257 33.5004C73.2697 33.8364 72.5257 34.0044 71.6937 34.0044ZM72.2697 31.1004C73.1497 31.1004 73.8617 30.8124 74.4057 30.2364C74.9497 29.6444 75.2217 28.8844 75.2217 27.9564C75.2217 27.3484 75.0937 26.8124 74.8377 26.3484C74.5977 25.8684 74.2537 25.5004 73.8057 25.2444C73.3737 24.9724 72.8617 24.8364 72.2697 24.8364C71.6937 24.8364 71.1817 24.9724 70.7337 25.2444C70.3017 25.5004 69.9577 25.8684 69.7017 26.3484C69.4617 26.8124 69.3417 27.3484 69.3417 27.9564C69.3417 28.5804 69.4617 29.1324 69.7017 29.6124C69.9577 30.0764 70.3017 30.4444 70.7337 30.7164C71.1817 30.9724 71.6937 31.1004 72.2697 31.1004ZM75.0537 33.7644V30.6444L75.5577 27.8124L75.0537 25.0284V22.1724H78.1737V33.7644H75.0537ZM84.603 33.8604L79.755 22.1724H83.163L86.379 31.1004H85.227L88.5631 22.1724H91.995L86.835 33.8604H84.603ZM81.387 38.6124L84.915 31.1484L86.835 33.8604L84.723 38.6124H81.387ZM98.5202 34.0044C97.3522 34.0044 96.2962 33.7404 95.3522 33.2124C94.4242 32.6684 93.6802 31.9404 93.1202 31.0284C92.5762 30.1004 92.3042 29.0684 92.3042 27.9324C92.3042 26.7964 92.5762 25.7804 93.1202 24.8844C93.6642 23.9724 94.4082 23.2524 95.3522 22.7244C96.2962 22.1804 97.3442 21.9084 98.4962 21.9084C99.6802 21.9084 100.736 22.1804 101.664 22.7244C102.608 23.2524 103.352 23.9724 103.896 24.8844C104.44 25.7804 104.712 26.7964 104.712 27.9324C104.712 29.0684 104.44 30.1004 103.896 31.0284C103.352 31.9404 102.608 32.6684 101.664 33.2124C100.736 33.7404 99.6882 34.0044 98.5202 34.0044ZM98.4962 31.0764C99.0882 31.0764 99.6082 30.9484 100.056 30.6924C100.52 30.4204 100.872 30.0524 101.112 29.5884C101.368 29.1084 101.496 28.5644 101.496 27.9564C101.496 27.3484 101.368 26.8124 101.112 26.3484C100.856 25.8844 100.504 25.5244 100.056 25.2684C99.6082 24.9964 99.0882 24.8604 98.4962 24.8604C97.9202 24.8604 97.4082 24.9964 96.9602 25.2684C96.5122 25.5244 96.1602 25.8844 95.9042 26.3484C95.6482 26.8124 95.5202 27.3484 95.5202 27.9564C95.5202 28.5644 95.6482 29.1084 95.9042 29.5884C96.1602 30.0524 96.5122 30.4204 96.9602 30.6924C97.4082 30.9484 97.9202 31.0764 98.4962 31.0764ZM112.184 34.0044C111.016 34.0044 109.96 33.7404 109.016 33.2124C108.088 32.6684 107.344 31.9404 106.784 31.0284C106.24 30.1004 105.968 29.0684 105.968 27.9324C105.968 26.7964 106.24 25.7804 106.784 24.8844C107.328 23.9724 108.072 23.2524 109.016 22.7244C109.96 22.1804 111.008 21.9084 112.16 21.9084C113.344 21.9084 114.4 22.1804 115.328 22.7244C116.272 23.2524 117.016 23.9724 117.56 24.8844C118.104 25.7804 118.376 26.7964 118.376 27.9324C118.376 29.0684 118.104 30.1004 117.56 31.0284C117.016 31.9404 116.272 32.6684 115.328 33.2124C114.4 33.7404 113.352 34.0044 112.184 34.0044ZM112.16 31.0764C112.752 31.0764 113.272 30.9484 113.72 30.6924C114.184 30.4204 114.536 30.0524 114.776 29.5884C115.032 29.1084 115.16 28.5644 115.16 27.9564C115.16 27.3484 115.032 26.8124 114.776 26.3484C114.52 25.8844 114.168 25.5244 113.72 25.2684C113.272 24.9964 112.752 24.8604 112.16 24.8604C111.584 24.8604 111.072 24.9964 110.624 25.2684C110.176 25.5244 109.824 25.8844 109.568 26.3484C109.312 26.8124 109.184 27.3484 109.184 27.9564C109.184 28.5644 109.312 29.1084 109.568 29.5884C109.824 30.0524 110.176 30.4204 110.624 30.6924C111.072 30.9484 111.584 31.0764 112.16 31.0764Z" fill="#080808"/>
<defs>
<linearGradient id="paint0_linear_17_326" x1="14.862" y1="38.4842" x2="13.7963" y2="21.9066" gradientUnits="userSpaceOnUse">
<stop stop-color="#0874F2"/>
<stop offset="1" stop-color="#0874F2" stop-opacity="0"/>
</linearGradient>
<linearGradient id="paint1_linear_17_326" x1="28.9419" y1="61.901" x2="26.2486" y2="20.0046" gradientUnits="userSpaceOnUse">
<stop stop-color="#0874F2"/>
<stop offset="1" stop-color="#0874F2" stop-opacity="0"/>
</linearGradient>
</defs>
</svg>
