<svg width="46" height="45" viewBox="0 0 46 45" fill="none" xmlns="http://www.w3.org/2000/svg">
<g clip-path="url(#clip0_15_117)">
<path d="M40.0624 40.5986H5.73517C3.90564 40.5986 2.42249 39.1484 2.42249 37.3595V9.41095C2.42249 7.62207 3.90564 6.17188 5.73517 6.17188H40.0624C41.892 6.17188 43.3751 7.62207 43.3751 9.41095V37.3595C43.3751 39.1484 41.892 40.5986 40.0624 40.5986Z" fill="url(#paint0_linear_15_117)"/>
<path d="M39.2969 39.8308H6.50072C4.75275 39.8308 3.33569 38.4453 3.33569 36.7361V10.0341C3.33569 8.32502 4.75267 6.93945 6.50072 6.93945H39.2968C41.0448 6.93945 42.4619 8.32494 42.4619 10.0341V36.7362C42.462 38.4453 41.0449 39.8308 39.2969 39.8308Z" fill="url(#paint1_linear_15_117)"/>
<path d="M41.1555 15.2121L32.8986 1.22871C32.3487 0.297229 31.1304 -0.0219431 30.1778 0.51594L4.14478 15.2121H41.1555Z" fill="url(#paint2_linear_15_117)"/>
<path d="M2.42249 26.4663H43.3751V15.8605C43.3751 14.5219 42.2653 13.4368 40.8963 13.4368H4.90135C3.53228 13.4368 2.42249 14.5219 2.42249 15.8605V26.4663Z" fill="url(#paint3_linear_15_117)"/>
<path d="M2.42249 22.4777V37.3595C2.42249 39.1483 3.90564 40.5986 5.73526 40.5986H40.0624C41.892 40.5986 43.3751 39.1484 43.3751 37.3596V22.4777C43.3751 21.3728 42.459 20.4771 41.329 20.4771H4.46858C3.33857 20.4771 2.42249 21.3727 2.42249 22.4777Z" fill="url(#paint4_linear_15_117)"/>
<path d="M37.1968 14.802V40.5988H40.0625C41.892 40.5988 43.3751 39.1486 43.3751 37.3597V20.8431L37.1968 14.802Z" fill="url(#paint5_linear_15_117)"/>
<path d="M34.4034 44.2304L5.65554 40.9658C3.81265 40.7565 2.42249 39.2303 2.42249 37.4162V9.16943C2.42249 9.7765 2.88769 10.2871 3.50424 10.3572L35.2466 13.9619C37.0894 14.1713 38.4796 15.6974 38.4796 17.5115V40.6809C38.4796 42.8177 36.5742 44.477 34.4034 44.2304Z" fill="url(#paint6_linear_15_117)"/>
<path d="M34.4034 38.5881L5.65554 35.3235C3.81265 35.1141 2.42249 33.588 2.42249 31.7739V37.4161C2.42249 39.2301 3.81265 40.7564 5.65554 40.9656L34.4034 44.2302C36.5742 44.4768 38.4797 42.8176 38.4797 40.6807V35.0385C38.4796 37.1754 36.5742 38.8345 34.4034 38.5881Z" fill="url(#paint7_linear_15_117)"/>
<path d="M4.99987 13.5721C4.97579 13.5721 4.95135 13.5707 4.92683 13.5681L3.61129 13.4267C3.24795 13.3876 2.98577 13.068 3.02576 12.7129C3.06575 12.3577 3.39279 12.1016 3.75578 12.1404L5.07132 12.2818C5.43466 12.3209 5.69684 12.6404 5.65685 12.9956C5.61959 13.3269 5.33289 13.5721 4.99987 13.5721Z" fill="url(#paint8_linear_15_117)"/>
<path d="M32.032 42.0985C32.0042 42.0985 31.9759 42.0967 31.9476 42.0932L29.3908 41.7753C29.0283 41.7303 28.7717 41.4063 28.8178 41.0517C28.864 40.6973 29.1952 40.4479 29.5579 40.4915L32.1147 40.8094C32.4771 40.8544 32.7339 41.1784 32.6876 41.533C32.645 41.8597 32.3603 42.0985 32.032 42.0985ZM34.5486 41.7782C34.3004 41.7782 34.0623 41.6409 33.9496 41.4067C33.7937 41.0835 33.9355 40.6979 34.2662 40.5457C34.9376 40.2363 35.4425 39.7232 35.6516 39.1378C35.7721 38.8006 36.1497 38.6227 36.4945 38.7403C36.8395 38.8581 37.0216 39.2271 36.9011 39.5645C36.5709 40.489 35.8355 41.2533 34.8302 41.7163C34.7391 41.7582 34.6432 41.7782 34.5486 41.7782ZM26.9184 41.4627C26.8906 41.4627 26.8623 41.4609 26.834 41.4575L24.2772 41.1396C23.9148 41.0945 23.658 40.7706 23.7043 40.416C23.7504 40.0616 24.0817 39.812 24.4443 39.8558L27.0011 40.1736C27.3636 40.2187 27.6203 40.5427 27.5741 40.8972C27.5315 41.2239 27.2465 41.4627 26.9184 41.4627ZM21.8049 40.8269C21.7771 40.8269 21.7489 40.825 21.7205 40.8216L19.1637 40.5037C18.8012 40.4587 18.5445 40.1347 18.5907 39.7801C18.6368 39.4257 18.9682 39.175 19.3307 39.2199L21.8876 39.5378C22.25 39.5828 22.5067 39.9068 22.4605 40.2614C22.4179 40.588 22.1329 40.8269 21.8049 40.8269ZM16.6911 40.191C16.6633 40.191 16.6351 40.1892 16.6067 40.1858L14.0498 39.8678C13.6873 39.8227 13.4306 39.4988 13.4769 39.1442C13.523 38.7897 13.8544 38.5401 14.2169 38.584L16.7738 38.9019C17.1364 38.9471 17.393 39.271 17.3468 39.6255C17.3043 39.9524 17.0194 40.191 16.6911 40.191ZM11.5775 39.5551C11.5498 39.5551 11.5216 39.5533 11.4932 39.5499L8.93626 39.2319C8.57371 39.1868 8.31707 38.8629 8.3633 38.5083C8.40944 38.1539 8.74088 37.9042 9.10334 37.9481L11.6603 38.2661C12.0228 38.3112 12.2794 38.6351 12.2332 38.9897C12.1907 39.3165 11.9058 39.5551 11.5775 39.5551ZM36.4248 37.4948C36.0593 37.4948 35.7631 37.2052 35.7631 36.8478V34.3277C35.7631 33.9702 36.0593 33.6806 36.4248 33.6806C36.7904 33.6806 37.0866 33.9702 37.0866 34.3277V36.8478C37.0867 37.2052 36.7905 37.4948 36.4248 37.4948ZM36.4248 32.4546C36.0593 32.4546 35.7631 32.165 35.7631 31.8076V29.2875C35.7631 28.9301 36.0593 28.6405 36.4248 28.6405C36.7904 28.6405 37.0866 28.9301 37.0866 29.2875V31.8076C37.0867 32.165 36.7905 32.4546 36.4248 32.4546ZM36.4248 27.4144C36.0593 27.4144 35.7631 27.1248 35.7631 26.7674V24.2473C35.7631 23.8899 36.0593 23.6003 36.4248 23.6003C36.7904 23.6003 37.0866 23.8899 37.0866 24.2473V26.7674C37.0867 27.1247 36.7905 27.4144 36.4248 27.4144ZM36.4248 22.3742C36.0593 22.3742 35.7631 22.0846 35.7631 21.7272V19.207C35.7631 18.8496 36.0593 18.56 36.4248 18.56C36.7904 18.56 37.0866 18.8496 37.0866 19.207V21.7272C37.0867 22.0845 36.7905 22.3742 36.4248 22.3742ZM35.4994 17.5922C35.336 17.5922 35.1722 17.5333 35.0443 17.4148C34.5538 16.9604 33.8731 16.6709 33.1274 16.5994L33.1099 16.5976C32.7464 16.5594 32.4836 16.2403 32.5228 15.885C32.5619 15.5297 32.8881 15.2726 33.2515 15.311L33.2628 15.3122C34.2935 15.4109 35.2517 15.8243 35.9547 16.4754C36.2201 16.7212 36.2313 17.1308 35.9799 17.3902C35.8497 17.5244 35.6747 17.5922 35.4994 17.5922ZM30.6194 16.326C30.5953 16.326 30.5709 16.3246 30.5464 16.322L27.9844 16.0466C27.6212 16.0075 27.3589 15.688 27.3989 15.3328C27.4389 14.9776 27.7659 14.722 28.1289 14.7603L30.6909 15.0357C31.0541 15.0748 31.3164 15.3943 31.2764 15.7495C31.2392 16.0807 30.9524 16.326 30.6194 16.326ZM25.4956 15.7751C25.4716 15.7751 25.4471 15.7738 25.4226 15.7712L22.8606 15.4957C22.4973 15.4566 22.2351 15.1371 22.2751 14.7819C22.315 14.4267 22.6425 14.1708 23.0051 14.2094L25.5671 14.4849C25.9304 14.524 26.1926 14.8435 26.1526 15.1987C26.1154 15.5299 25.8287 15.7751 25.4956 15.7751ZM20.3716 15.2244C20.3475 15.2244 20.3231 15.223 20.2986 15.2204L17.7367 14.945C17.3734 14.9059 17.1111 14.5864 17.1511 14.2312C17.191 13.876 17.5179 13.6201 17.8812 13.6587L20.4431 13.9341C20.8063 13.9732 21.0686 14.2927 21.0286 14.6479C20.9914 14.9791 20.7047 15.2244 20.3716 15.2244ZM15.2477 14.6736C15.2236 14.6736 15.1992 14.6722 15.1746 14.6696L12.6127 14.3942C12.2494 14.3551 11.9872 14.0356 12.0272 13.6804C12.0671 13.3253 12.3936 13.0695 12.7572 13.1079L15.3191 13.3833C15.6824 13.4224 15.9447 13.7419 15.9047 14.0971C15.8676 14.4283 15.5808 14.6736 15.2477 14.6736ZM10.1237 14.1227C10.0997 14.1227 10.0752 14.1213 10.0507 14.1188L7.48879 13.8433C7.12554 13.8042 6.86327 13.4847 6.90326 13.1295C6.94325 12.7744 7.26985 12.5187 7.63328 12.557L10.1952 12.8325C10.5585 12.8716 10.8207 13.1911 10.7807 13.5463C10.7436 13.8775 10.4568 14.1227 10.1237 14.1227Z" fill="url(#paint9_linear_15_117)"/>
<path d="M6.45771 38.9184C6.42993 38.9184 6.40181 38.9167 6.37342 38.9132L5.06042 38.75C4.69787 38.7049 4.44115 38.381 4.48738 38.0265C4.53343 37.672 4.86478 37.4212 5.22733 37.4661L6.54033 37.6293C6.90287 37.6744 7.1596 37.9984 7.11337 38.3529C7.07083 38.6797 6.78589 38.9184 6.45771 38.9184Z" fill="url(#paint10_linear_15_117)"/>
<path d="M30.771 5.07292L26.5357 7.32637C25.984 7.61985 25.2935 7.42056 24.9932 6.88113C24.6931 6.3417 24.8969 5.66649 25.4486 5.37293L29.684 3.11956C30.2357 2.82608 30.9262 3.02537 31.2264 3.5648C31.5266 4.10414 31.3228 4.77944 30.771 5.07292Z" fill="#61DB99"/>
<path d="M38.4796 31.5205L34.2766 27.4109C33.6836 26.7795 32.8327 26.3835 31.8869 26.3835C30.0951 26.3835 28.6426 27.8038 28.6426 29.5557C28.6426 30.4804 29.0476 31.3126 29.6934 31.8923L38.4797 40.4834V31.5205H38.4796Z" fill="url(#paint11_linear_15_117)"/>
<path d="M31.8865 32.7273C33.6782 32.7273 35.1307 31.3071 35.1307 29.5552C35.1307 27.8033 33.6782 26.3831 31.8865 26.3831C30.0948 26.3831 28.6423 27.8033 28.6423 29.5552C28.6423 31.3071 30.0948 32.7273 31.8865 32.7273Z" fill="url(#paint12_linear_15_117)"/>
<path d="M31.8865 31.7443C33.123 31.7443 34.1254 30.7642 34.1254 29.5551C34.1254 28.3461 33.123 27.366 31.8865 27.366C30.65 27.366 29.6476 28.3461 29.6476 29.5551C29.6476 30.7642 30.65 31.7443 31.8865 31.7443Z" fill="url(#paint13_linear_15_117)"/>
<path d="M31.0359 29.1765C31.2918 29.1765 31.4992 28.9737 31.4992 28.7235C31.4992 28.4733 31.2918 28.2705 31.0359 28.2705C30.78 28.2705 30.5726 28.4733 30.5726 28.7235C30.5726 28.9737 30.78 29.1765 31.0359 29.1765Z" fill="url(#paint14_linear_15_117)"/>
<path d="M32.7371 29.1765C32.9929 29.1765 33.2003 28.9737 33.2003 28.7235C33.2003 28.4733 32.9929 28.2705 32.7371 28.2705C32.4812 28.2705 32.2738 28.4733 32.2738 28.7235C32.2738 28.9737 32.4812 29.1765 32.7371 29.1765Z" fill="url(#paint15_linear_15_117)"/>
<path d="M31.0359 30.8408C31.2918 30.8408 31.4992 30.638 31.4992 30.3878C31.4992 30.1376 31.2918 29.9348 31.0359 29.9348C30.78 29.9348 30.5726 30.1376 30.5726 30.3878C30.5726 30.638 30.78 30.8408 31.0359 30.8408Z" fill="url(#paint16_linear_15_117)"/>
<path d="M32.7371 30.8408C32.9929 30.8408 33.2003 30.638 33.2003 30.3878C33.2003 30.1376 32.9929 29.9348 32.7371 29.9348C32.4812 29.9348 32.2738 30.1376 32.2738 30.3878C32.2738 30.638 32.4812 30.8408 32.7371 30.8408Z" fill="url(#paint17_linear_15_117)"/>
</g>
<defs>
<linearGradient id="paint0_linear_15_117" x1="23.568" y1="4.18752" x2="23.3394" y2="11.0427" gradientUnits="userSpaceOnUse">
<stop stop-color="#FFB92D"/>
<stop offset="1" stop-color="#F59500"/>
</linearGradient>
<linearGradient id="paint1_linear_15_117" x1="24.7145" y1="8.73894" x2="24.0915" y2="13.9937" gradientUnits="userSpaceOnUse">
<stop stop-color="#FFB92D"/>
<stop offset="1" stop-color="#F59500"/>
</linearGradient>
<linearGradient id="paint2_linear_15_117" x1="22.6496" y1="8.89408" x2="22.6496" y2="12.8945" gradientUnits="userSpaceOnUse">
<stop stop-color="#A7F3CE"/>
<stop offset="1" stop-color="#61DB99"/>
</linearGradient>
<linearGradient id="paint3_linear_15_117" x1="22.8983" y1="15.8191" x2="22.8983" y2="27.0449" gradientUnits="userSpaceOnUse">
<stop stop-color="#FF4C54"/>
<stop offset="1" stop-color="#BE3F45"/>
</linearGradient>
<linearGradient id="paint4_linear_15_117" x1="22.8983" y1="24.1549" x2="22.8983" y2="41.4923" gradientUnits="userSpaceOnUse">
<stop stop-color="#FF4C54"/>
<stop offset="1" stop-color="#BE3F45"/>
</linearGradient>
<linearGradient id="paint5_linear_15_117" x1="41.0453" y1="27.7007" x2="38.0577" y2="27.7007" gradientUnits="userSpaceOnUse">
<stop stop-color="#BE3F45" stop-opacity="0"/>
<stop offset="1" stop-color="#BE3F45"/>
</linearGradient>
<linearGradient id="paint6_linear_15_117" x1="14.3259" y1="24.7018" x2="29.4025" y2="31.8144" gradientUnits="userSpaceOnUse">
<stop stop-color="#FFB92D"/>
<stop offset="1" stop-color="#F59500"/>
</linearGradient>
<linearGradient id="paint7_linear_15_117" x1="19.9665" y1="39.9643" x2="19.3654" y2="44.6627" gradientUnits="userSpaceOnUse">
<stop stop-color="#BE3F45" stop-opacity="0"/>
<stop offset="1" stop-color="#BE3F45"/>
</linearGradient>
<linearGradient id="paint8_linear_15_117" x1="4.34117" y1="12.1371" x2="4.34117" y2="42.1608" gradientUnits="userSpaceOnUse">
<stop stop-color="#FFF465"/>
<stop offset="1" stop-color="#FFE600"/>
</linearGradient>
<linearGradient id="paint9_linear_15_117" x1="21.9925" y1="12.1379" x2="21.9925" y2="42.0987" gradientUnits="userSpaceOnUse">
<stop stop-color="#FFF465"/>
<stop offset="1" stop-color="#FFE600"/>
</linearGradient>
<linearGradient id="paint10_linear_15_117" x1="5.8002" y1="12.1361" x2="5.8002" y2="42.159" gradientUnits="userSpaceOnUse">
<stop stop-color="#FFF465"/>
<stop offset="1" stop-color="#FFE600"/>
</linearGradient>
<linearGradient id="paint11_linear_15_117" x1="36.2163" y1="33.7899" x2="27.329" y2="24.7006" gradientUnits="userSpaceOnUse">
<stop stop-color="#BE3F45" stop-opacity="0"/>
<stop offset="1" stop-color="#BE3F45"/>
</linearGradient>
<linearGradient id="paint12_linear_15_117" x1="31.8858" y1="27.5644" x2="31.8858" y2="32.1515" gradientUnits="userSpaceOnUse">
<stop stop-color="#FF4C54"/>
<stop offset="1" stop-color="#BE3F45"/>
</linearGradient>
<linearGradient id="paint13_linear_15_117" x1="31.8858" y1="30.9298" x2="31.8858" y2="27.7645" gradientUnits="userSpaceOnUse">
<stop stop-color="#FF4C54"/>
<stop offset="1" stop-color="#BE3F45"/>
</linearGradient>
<linearGradient id="paint14_linear_15_117" x1="26.6443" y1="9.76364" x2="27.532" y2="13.7727" gradientUnits="userSpaceOnUse">
<stop stop-color="#A7F3CE"/>
<stop offset="1" stop-color="#61DB99"/>
</linearGradient>
<linearGradient id="paint15_linear_15_117" x1="28.3455" y1="9.76383" x2="29.2331" y2="13.7729" gradientUnits="userSpaceOnUse">
<stop stop-color="#A7F3CE"/>
<stop offset="1" stop-color="#61DB99"/>
</linearGradient>
<linearGradient id="paint16_linear_15_117" x1="26.2777" y1="9.84488" x2="27.1654" y2="13.8539" gradientUnits="userSpaceOnUse">
<stop stop-color="#A7F3CE"/>
<stop offset="1" stop-color="#61DB99"/>
</linearGradient>
<linearGradient id="paint17_linear_15_117" x1="27.9789" y1="9.84507" x2="28.8665" y2="13.8541" gradientUnits="userSpaceOnUse">
<stop stop-color="#A7F3CE"/>
<stop offset="1" stop-color="#61DB99"/>
</linearGradient>
<clipPath id="clip0_15_117">
<rect width="45" height="44" fill="white" transform="translate(0.398804 0.254639)"/>
</clipPath>
</defs>
</svg>
