<svg width="64" height="64" viewBox="0 0 64 64" fill="none" xmlns="http://www.w3.org/2000/svg">
<path fill-rule="evenodd" clip-rule="evenodd" d="M33.6733 43.4378L19.351 57.8464C19.0886 57.3214 19.4 56.642 19.351 56.0252L24.3875 41.6795C30.6941 41.6795 32.6579 40.4904 33.6733 43.4378Z" fill="#46A350"/>
<path d="M57.7738 18.6217C58.9587 16.5389 56.9622 14.0882 54.6831 14.8268L8.58388 29.7654C6.36555 30.4842 6.11591 33.5229 8.18719 34.5941L37.2432 49.6218C38.4948 50.2692 40.0342 49.8128 40.7309 48.588L57.7738 18.6217Z" fill="#099718"/>
<path d="M37.236 31.7936C38.0587 30.6195 36.7868 28.9849 35.4125 29.6046L18.4019 37.3967C17.4686 37.8242 16.8701 38.7566 16.8701 39.7832L18.6358 57.4055C18.692 57.9662 19.4715 58.0565 19.6547 57.5236L24.1714 44.3844C24.4844 43.4738 25.0384 42.6699 25.7764 42.0514C28.6731 39.6238 36.2246 33.2371 37.236 31.7936Z" fill="#005513"/>
<path d="M16.775 20.6796C16.775 29.0881 23.5915 35.9046 32 35.9046C40.4086 35.9046 47.225 29.0881 47.225 20.6796C47.225 12.271 40.4086 5.45459 32 5.45459C23.5915 5.45459 16.775 12.271 16.775 20.6796Z" fill="#FFBA33"/>
<path fill-rule="evenodd" clip-rule="evenodd" d="M33.05 13.3295C33.05 12.7496 32.58 12.2795 32 12.2795C31.4201 12.2795 30.95 12.7496 30.95 13.3295V14.3795H28.914C27.7236 14.3795 26.7583 14.8485 26.104 15.6029C25.4682 16.3362 25.175 17.2799 25.175 18.1858C25.175 19.0917 25.4682 20.0354 26.104 20.7686C26.7583 21.5231 27.7236 21.992 28.914 21.992H30.95V25.4045H26.9989C26.419 25.4045 25.9489 25.8746 25.9489 26.4545C25.9489 27.0345 26.419 27.5045 26.9989 27.5045H30.95V28.5545C30.95 29.1345 31.4201 29.6045 32 29.6045C32.58 29.6045 33.05 29.1345 33.05 28.5545V27.5045H35.086C36.2765 27.5045 37.2418 27.0356 37.8961 26.2811C38.5319 25.5479 38.825 24.6042 38.825 23.6983C38.825 22.7924 38.5319 21.8487 37.8961 21.1154C37.2418 20.361 36.2765 19.892 35.086 19.892H33.05V16.4795H36.6226C37.2025 16.4795 37.6726 16.0095 37.6726 15.4295C37.6726 14.8496 37.2025 14.3795 36.6226 14.3795H33.05V13.3295ZM30.95 16.4795H28.914C28.3118 16.4795 27.9327 16.6996 27.6906 16.9788C27.4301 17.2792 27.275 17.7136 27.275 18.1858C27.275 18.658 27.4301 19.0924 27.6906 19.3928C27.9327 19.672 28.3118 19.892 28.914 19.892H30.95V16.4795ZM33.05 21.992V25.4045H35.086C35.6883 25.4045 36.0674 25.1845 36.3095 24.9053C36.57 24.6049 36.725 24.1705 36.725 23.6983C36.725 23.2261 36.57 22.7917 36.3095 22.4913C36.0674 22.2121 35.6883 21.992 35.086 21.992H33.05Z" fill="white"/>
</svg>
