<svg width="10" height="13" viewBox="0 0 10 13" fill="none" xmlns="http://www.w3.org/2000/svg">
<path d="M2.28055 0.25293C2.77562 0.252943 3.16343 0.458375 3.44397 0.869226C3.74102 1.26367 3.90604 1.80601 3.93905 2.49625V5.08469H4.63215L5.79558 6.26798H3.93905V9.62063C3.93904 9.88359 4.03806 10.1219 4.23609 10.3355C4.43412 10.5492 4.75592 10.656 5.20149 10.656C5.77907 10.656 6.38966 10.3355 7.03326 9.69459C7.69336 9.03721 8.03991 8.3634 8.07292 7.67314L7.77587 7.69779C6.71971 7.6978 6.19163 7.13902 6.19164 6.02146C6.19163 5.64348 6.3154 5.30657 6.56294 5.01074C6.81047 4.71493 7.22303 4.56701 7.80063 4.56701C8.41121 4.56701 8.92279 4.82997 9.33536 5.35587C9.76441 5.88178 9.97894 6.52273 9.97895 7.27871C9.97895 8.39627 9.50038 9.46451 8.54324 10.4834C7.60259 11.5024 6.48042 12.0119 5.17673 12.0119C4.69816 12.0119 4.18658 11.8064 3.642 11.3956C3.11392 10.9683 2.80037 10.5574 2.70136 10.163V6.26798H1.51318L0.374512 5.08469H2.70136V2.74277C2.70136 2.26618 2.41257 1.98679 1.83498 1.9046C1.57094 1.90462 1.39767 1.9457 1.31515 2.02786C1.16663 1.78136 1.02636 1.48554 0.89434 1.1404V1.01714C0.89434 0.803501 1.05936 0.622722 1.38941 0.474798C1.71946 0.3269 2.01651 0.252943 2.28055 0.25293Z" fill="#0059C0"/>
</svg>
