<svg width="27" height="22" viewBox="0 0 27 22" fill="none" xmlns="http://www.w3.org/2000/svg">
<path d="M2.71201 3.0501L1.9656 2.38462L1.96559 2.38462L2.71201 3.0501ZM3.39175 2.41035L4.01151 3.19514L4.01152 3.19513L3.39175 2.41035ZM23.9617 2.41035L23.3419 3.19511L23.342 3.19517L23.9617 2.41035ZM24.6415 3.0501L25.3879 2.38462L25.3879 2.38459L24.6415 3.0501ZM24.6415 18.9499L23.8951 18.2844L23.8951 18.2845L24.6415 18.9499ZM23.9617 19.5896L23.3419 18.8048L23.3419 18.8049L23.9617 19.5896ZM3.39175 19.5896L2.77194 20.3744L2.77196 20.3744L3.39175 19.5896ZM2.71201 18.9499L3.45848 18.2845L3.45845 18.2844L2.71201 18.9499ZM11.2258 14.902C10.6735 14.902 10.2258 15.3497 10.2258 15.902C10.2258 16.4543 10.6735 16.902 11.2258 16.902V15.902V14.902ZM13.064 16.902C13.6163 16.902 14.064 16.4543 14.064 15.902C14.064 15.3497 13.6163 14.902 13.064 14.902V15.902V16.902ZM16.7405 14.902C16.1882 14.902 15.7405 15.3497 15.7405 15.902C15.7405 16.4543 16.1882 16.902 16.7405 16.902V15.902V14.902ZM21.0297 16.902C21.582 16.902 22.0297 16.4543 22.0297 15.902C22.0297 15.3497 21.582 14.902 21.0297 14.902V15.902V16.902ZM1.42181 11H2.42181C2.42181 8.80599 2.42372 7.25532 2.57506 6.06854C2.72287 4.90942 2.99971 4.2301 3.45844 3.71557L2.71201 3.0501L1.96559 2.38462C1.13412 3.31724 0.765859 4.44529 0.591122 5.81555C0.419912 7.15814 0.421814 8.85885 0.421814 11H1.42181ZM2.71201 3.0501L3.45843 3.71557C3.62573 3.52793 3.81072 3.35371 4.01151 3.19514L3.39175 2.41035L2.77199 1.62556C2.48091 1.85542 2.21102 2.10934 1.9656 2.38462L2.71201 3.0501ZM3.39175 2.41035L4.01152 3.19513C4.57227 2.75229 5.32053 2.48341 6.57668 2.34151C7.85121 2.19754 9.51198 2.19604 11.8385 2.19604V1.19604V0.196045C9.55893 0.196045 7.76512 0.194547 6.35219 0.354153C4.92088 0.515834 3.74882 0.85411 2.77197 1.62557L3.39175 2.41035ZM11.8385 1.19604V2.19604H15.515V1.19604V0.196045H11.8385V1.19604ZM15.515 1.19604V2.19604C17.8415 2.19604 19.5023 2.19754 20.7769 2.34151C22.033 2.48341 22.7812 2.75228 23.3419 3.19511L23.9617 2.41035L24.5815 1.62559C23.6047 0.854111 22.4326 0.515834 21.0013 0.354153C19.5884 0.194547 17.7946 0.196045 15.515 0.196045V1.19604ZM23.9617 2.41035L23.342 3.19517C23.5428 3.35374 23.7278 3.52795 23.8951 3.7156L24.6415 3.0501L25.3879 2.38459C25.1425 2.10932 24.8725 1.8554 24.5814 1.62553L23.9617 2.41035ZM24.6415 3.0501L23.8951 3.71557C24.3538 4.2301 24.6306 4.90942 24.7785 6.06854C24.9298 7.25532 24.9317 8.80599 24.9317 11H25.9317H26.9317C26.9317 8.85885 26.9336 7.15814 26.7624 5.81555C26.5877 4.44529 26.2194 3.31724 25.3879 2.38462L24.6415 3.0501ZM25.9317 11H24.9317C24.9317 13.194 24.9298 14.7447 24.7785 15.9315C24.6306 17.0906 24.3538 17.7699 23.8951 18.2844L24.6415 18.9499L25.3879 19.6154C26.2194 18.6827 26.5877 17.5547 26.7624 16.1845C26.9336 14.8419 26.9317 13.1412 26.9317 11H25.9317ZM24.6415 18.9499L23.8951 18.2845C23.7279 18.472 23.5429 18.6461 23.3419 18.8048L23.9617 19.5896L24.5815 20.3744C24.8724 20.1446 25.1424 19.8908 25.388 19.6153L24.6415 18.9499ZM23.9617 19.5896L23.3419 18.8049C22.7812 19.2477 22.033 19.5166 20.7768 19.6585C19.5023 19.8025 17.8415 19.804 15.515 19.804V20.804V21.804C17.7946 21.804 19.5884 21.8055 21.0013 21.6458C22.4327 21.4842 23.6047 21.1459 24.5815 20.3744L23.9617 19.5896ZM15.515 20.804V19.804H11.8385V20.804V21.804H15.515V20.804ZM11.8385 20.804V19.804C9.51198 19.804 7.85121 19.8025 6.57668 19.6585C5.32054 19.5166 4.57228 19.2477 4.01153 18.8048L3.39175 19.5896L2.77196 20.3744C3.74881 21.1459 4.92087 21.4842 6.35218 21.6458C7.76512 21.8055 9.55893 21.804 11.8385 21.804V20.804ZM3.39175 19.5896L4.01156 18.8049C3.81061 18.6461 3.62565 18.472 3.45848 18.2845L2.71201 18.9499L1.96555 19.6153C2.2111 19.8908 2.48102 20.1446 2.77194 20.3744L3.39175 19.5896ZM2.71201 18.9499L3.45845 18.2844C2.9997 17.7699 2.72287 17.0906 2.57506 15.9315C2.42372 14.7447 2.42181 13.194 2.42181 11H1.42181H0.421814C0.421814 13.1412 0.419912 14.8419 0.591122 16.1845C0.76586 17.5547 1.13412 18.6827 1.96558 19.6154L2.71201 18.9499ZM11.2258 15.902V16.902H13.064V15.902V14.902H11.2258V15.902ZM16.7405 15.902V16.902H21.0297V15.902V14.902H16.7405V15.902ZM1.42181 7.32352V8.32352H25.9317V7.32352V6.32352H1.42181V7.32352Z" fill="#0874F2"/>
</svg>
