<svg width="21" height="22" viewBox="0 0 21 22" fill="none" xmlns="http://www.w3.org/2000/svg">
<path d="M13.1662 7.51049V3.13785C13.1662 2.25163 12.4477 1.5332 11.5615 1.5332C11.3063 1.5332 11.0548 1.59407 10.8278 1.71076L1.96788 6.26581C1.50146 6.50561 1.20825 6.98604 1.20825 7.51049M1.20825 7.51216H13.1662C15.9846 7.51216 17.3939 7.51216 18.2695 8.38775C19.1451 9.26339 19.1451 10.6726 19.1451 13.4911V14.4876C19.1451 17.3061 19.1451 18.7153 18.2695 19.5909C17.3939 20.4666 15.9846 20.4666 13.1662 20.4666H7.1872C4.3687 20.4666 2.95945 20.4666 2.08385 19.5909C1.20825 18.7153 1.20825 17.3061 1.20825 14.4876V7.51216Z" stroke="#0874F2" stroke-width="2" stroke-linecap="round" stroke-linejoin="round"/>
</svg>
