<svg width="63" height="63" viewBox="0 0 63 63" fill="none" xmlns="http://www.w3.org/2000/svg">
<g clip-path="url(#clip0_15_42)">
<path d="M49.0554 3.42998C49.4429 3.30081 49.8304 3.42998 50.0887 3.55915C50.7346 3.94665 51.1221 4.59248 51.2512 5.49665L52.5429 12.4716H54.7387L53.4471 5.10915C53.1887 3.55915 52.4137 2.39665 51.2512 1.62165C50.347 1.10498 49.3137 0.975814 48.4096 1.23415L12.5012 12.3425L19.2179 12.4716L49.0554 3.42998Z" fill="#F04B36"/>
<path d="M58.097 12.4717H54.8679H52.672H19.347L12.5012 12.3425C11.597 12.6009 10.6929 13.2467 10.1762 14.28C9.78871 14.9259 9.65955 15.5717 9.65955 16.3467V34.1717C11.0804 33.7842 12.6304 33.5259 14.1804 33.5259C23.0929 33.5259 30.3262 40.5009 30.3262 49.0259C30.3262 50.4467 30.197 51.7384 29.8095 53.03H58.097C59.9054 53.03 61.4554 51.3509 61.4554 49.2842V40.8884H45.697C45.0512 40.8884 44.6637 40.3717 44.6637 39.855V26.0342C44.6637 25.3884 45.1804 25.0009 45.697 25.0009H61.4554V16.3467C61.4554 14.28 59.9054 12.4717 58.097 12.4717Z" fill="#F7A93B"/>
<path d="M46.7305 38.6924H61.4555V27.0674H46.7305V38.6924ZM53.4471 30.684C54.4805 30.684 55.3846 31.7174 55.3846 32.8799C55.3846 34.1715 54.4805 35.0757 53.4471 35.0757C52.4138 35.0757 51.5096 34.0424 51.5096 32.8799C51.5096 31.7174 52.4138 30.684 53.4471 30.684Z" fill="#E77528"/>
<path d="M14.3096 35.98C6.8179 35.98 0.74707 41.7925 0.74707 48.8966C0.74707 56.0008 6.8179 61.8133 14.3096 61.8133C19.8637 61.8133 25.0304 58.455 26.9679 53.4175C27.4846 51.9966 27.8721 50.4466 27.8721 48.8966C27.8721 41.7925 21.8012 35.98 14.3096 35.98ZM19.4762 50.1883H15.6012V54.0633C15.6012 54.7091 15.0846 55.355 14.3096 55.355C13.6637 55.355 13.0179 54.8383 13.0179 54.0633V50.1883H9.1429C8.49707 50.1883 7.85124 49.6716 7.85124 48.8966C7.85124 48.2508 8.3679 47.605 9.1429 47.605H13.0179V43.73C13.0179 43.0841 13.5346 42.4383 14.3096 42.4383C14.9554 42.4383 15.6012 42.955 15.6012 43.73V47.605H19.4762C20.1221 47.605 20.7679 48.1216 20.7679 48.8966C20.7679 49.6716 20.2512 50.1883 19.4762 50.1883Z" fill="#0DB89A"/>
</g>
<defs>
<clipPath id="clip0_15_42">
<rect width="62" height="62" fill="white" transform="translate(0.101196 0.588379)"/>
</clipPath>
</defs>
</svg>
